# xmcd
#
# Track frame offsets: 
#        183
#        15605
#        31420
#        44683
#        62060
#        79070
#        88743
#        104403
#        120563
#        138888
#
# Disc length: 2075 seconds
#
# Revision: 4
# Processed by: cddbd v1.5.2PL0 Copyright (c) Steve Scherf et al.
# Submitted via: ExactAudioCopy v0.95a5
#
DISCID=8008190a
DTITLE=Highway 101 - Highway 101² 
DYEAR=1988
DGENRE=country
TTITLE0=Honky Tonk Heart
TTITLE1=Road To Your Heart
TTITLE2=Feed This Fire
TTITLE3=Setting Me Up
TTITLE4=Somewhere Between Gone And Goodbye
TTITLE5=There Goes My Love
TTITLE6=Desperate Road
TTITLE7=All The Reasons Why
TTITLE8=Long Way Down
TTITLE9=(Do You Love Me) Just Say Yes
EXTD=
EXTT0=
EXTT1=
EXTT2=
EXTT3=
EXTT4=
EXTT5=
EXTT6=
EXTT7=
EXTT8=
EXTT9=
PLAYORDER=
